<svg xmlns="http://www.w3.org/2000/svg" xmlns:xlink="http://www.w3.org/1999/xlink" width="1100" zoomAndPan="magnify" viewBox="0 0 824.88 824.999997" height="1100" preserveAspectRatio="xMidYMid meet" version="1.0"><defs><g/><clipPath id="bc53eaedfe"><path d="M 61.351562 25 L 742 25 L 742 824.9375 L 61.351562 824.9375 Z M 61.351562 25 " clip-rule="nonzero"/></clipPath></defs><g clip-path="url(#bc53eaedfe)"><path fill="#ece9d8" d="M 677.058594 380.980469 C 679.496094 382.71875 681.789062 381.746094 684.125 380.644531 C 687.070312 379.238281 690.058594 377.933594 693.628906 376.308594 C 696.167969 382.574219 698.691406 388.539062 701.027344 394.574219 C 713.765625 427.449219 726.460938 460.355469 739.167969 493.246094 C 742.128906 500.90625 742.070312 500.804688 735.789062 505.710938 C 718.902344 518.882812 702.144531 532.230469 685.152344 545.273438 C 682.511719 547.304688 679.003906 549.105469 675.78125 549.308594 C 652.394531 550.804688 628.976562 551.875 605.574219 553.050781 C 605.09375 553.082031 604.601562 552.890625 603.410156 552.6875 C 603.195312 550.238281 602.960938 547.582031 602.613281 543.722656 C 578.660156 537.222656 554.257812 530.605469 528.878906 523.714844 C 540.140625 482.480469 551.382812 441.363281 562.539062 400.492188 C 568.039062 399.1875 572.988281 398.273438 577.773438 396.808594 C 583.128906 395.152344 588.089844 392.789062 590.308594 386.898438 C 590.890625 385.347656 592.386719 384.140625 593.457031 382.792969 C 593.050781 384.578125 592.644531 386.375 592.035156 389.132812 C 600.074219 384.300781 607.097656 379.964844 614.25 375.855469 C 616.949219 374.304688 618.007812 372.1875 618.515625 369.242188 C 619.964844 360.855469 621.691406 352.527344 623.316406 344.183594 C 623.664062 344.226562 624.027344 344.285156 624.375 344.328125 C 622.882812 353.265625 621.386719 362.203125 619.851562 371.460938 C 625.550781 370.792969 628.585938 367.628906 628.933594 363.105469 C 629.804688 352.089844 629.992188 341.035156 630.398438 329.980469 C 630.414062 329.660156 629.757812 329.328125 629.09375 328.6875 C 628.222656 329.761719 627.351562 330.820312 626.609375 331.734375 C 626.261719 330.808594 625.828125 329.601562 625.03125 327.457031 C 622.824219 330.460938 621.242188 332.621094 619.660156 334.769531 C 620.242188 332.375 620.835938 329.964844 621.460938 327.414062 C 616.628906 322.289062 611.320312 319.824219 604.019531 322.015625 C 596.808594 324.175781 589.0625 324.726562 582.054688 327.339844 C 565.847656 333.375 549.179688 336.828125 532.085938 338.816406 C 526.082031 339.511719 520.089844 340.324219 514.097656 341.125 C 509.933594 341.675781 506.246094 340.863281 502.621094 338.527344 C 498.414062 335.8125 494 333.1875 489.359375 331.386719 C 468.972656 323.464844 452.230469 310.21875 436.316406 295.738281 C 427.175781 287.425781 426.085938 285.003906 414.898438 296.550781 C 409.414062 302.210938 405.019531 309.4375 401.855469 316.703125 C 396.953125 327.976562 393.542969 339.875 389.496094 351.527344 C 388.507812 354.355469 388.785156 356.589844 391.121094 358.996094 C 413.957031 382.574219 428.710938 410.285156 435.371094 442.625 C 442.65625 477.984375 447.660156 513.589844 450.460938 549.554688 C 450.738281 553.050781 451.257812 556.535156 451.78125 560.929688 C 464.214844 560.21875 476.519531 561.03125 487.9375 555.242188 C 492.566406 552.890625 496.222656 549.394531 498.28125 544.59375 C 501.269531 537.613281 507.046875 534.960938 513.9375 534.640625 C 525.515625 534.105469 537.105469 534.046875 548.699219 533.84375 C 549.773438 533.828125 550.847656 534.277344 552.035156 535.859375 C 549.730469 536.394531 547.363281 536.773438 545.117188 537.484375 C 540.574219 538.921875 535.917969 540.183594 531.621094 542.183594 C 527.707031 544.027344 527.039062 547.015625 530.1875 550.019531 C 533.769531 553.429688 538.007812 556.359375 542.417969 558.59375 C 547.320312 561.089844 552.660156 562.816406 557.957031 564.414062 C 562.628906 565.820312 564.964844 568.910156 566.296875 573.292969 C 569.925781 585.160156 567.226562 596.289062 561.886719 606.863281 C 559.144531 612.277344 553.691406 613.308594 549.28125 609.097656 C 544.578125 604.628906 540.328125 599.496094 536.816406 594.054688 C 534.597656 590.613281 532.421875 588.988281 528.472656 589.105469 C 526.226562 589.164062 523.859375 589.035156 521.726562 588.367188 C 506.625 583.636719 491.652344 585.683594 477.011719 589.859375 C 452.070312 596.96875 427.335938 604.804688 402.480469 612.277344 C 393.09375 615.089844 383.664062 617.746094 373.363281 620.734375 C 374.941406 627.800781 376.21875 634.664062 378.035156 641.367188 C 381.355469 653.65625 382.457031 665.929688 381.167969 678.742188 C 379.46875 695.511719 378.003906 712.414062 380.339844 729.320312 C 380.789062 732.554688 381.339844 735.773438 381.792969 739.011719 C 382.457031 743.914062 384.445312 747.730469 388.464844 751.097656 C 395.691406 757.160156 397.882812 767.128906 393.617188 775.09375 C 388.40625 784.828125 386.128906 795.347656 383.53125 805.851562 C 382.964844 808.171875 382.285156 810.453125 380.949219 812.640625 C 377.832031 807.941406 379.558594 802.992188 379.457031 798.265625 C 379.355469 793.578125 379.832031 788.890625 380.078125 783.480469 C 375.089844 785.320312 372.085938 788.382812 370.125 792.140625 C 366.875 798.378906 363.453125 804.675781 361.449219 811.351562 C 358.5625 820.957031 352.078125 824.65625 342.9375 824.828125 C 337.683594 824.929688 332.34375 824.625 327.164062 823.753906 C 325.046875 823.40625 322.710938 821.449219 321.449219 819.5625 C 317.5625 813.789062 317.488281 811.191406 322.609375 806.257812 C 327.820312 801.238281 333.839844 797 339.804688 792.835938 C 342.601562 790.878906 344.996094 789.078125 345.765625 785.539062 C 348.203125 774.484375 351.832031 763.542969 352.917969 752.359375 C 353.832031 743 352.398438 733.265625 350.945312 723.847656 C 349.351562 713.417969 345.941406 703.261719 344.402344 692.828125 C 341.050781 669.90625 338.46875 646.867188 335.390625 623.898438 C 333.59375 610.464844 331.429688 597.085938 329.328125 582.984375 C 326.554688 582.839844 323.597656 582.824219 320.664062 582.519531 C 316.226562 582.054688 311.65625 582.445312 307.769531 579.195312 C 306.460938 578.109375 303.9375 578.414062 301.949219 578.195312 C 285.902344 576.5 269.855469 574.828125 253.808594 573.132812 C 252.578125 573 251.371094 572.667969 249.734375 572.347656 C 249.734375 571.289062 249.558594 570.316406 249.761719 569.433594 C 260.992188 521.613281 271.875 473.71875 283.699219 426.058594 C 287.933594 408.996094 293.753906 392.222656 300.105469 375.800781 C 306.273438 359.867188 305.996094 343.734375 304.269531 327.425781 C 303.183594 317.199219 300.917969 307.085938 299.035156 296.945312 C 298.265625 292.765625 298.539062 288.820312 301.066406 285.378906 C 306.273438 278.285156 311.65625 271.308594 317.023438 264.328125 C 318.535156 262.371094 320.289062 260.601562 321.726562 258.976562 C 303.761719 231.394531 286.078125 204.246094 267.347656 175.492188 C 260.222656 209.066406 253.503906 240.695312 246.6875 272.800781 C 244.507812 272.191406 242.839844 271.859375 241.261719 271.277344 C 223.574219 264.632812 205.960938 257.8125 188.214844 251.34375 C 180.019531 248.339844 172.53125 244.277344 166.496094 238.007812 C 151.800781 222.746094 134.34375 211.457031 115.816406 201.449219 C 109.273438 197.90625 103.253906 193.046875 97.78125 187.925781 C 86.363281 177.246094 75.46875 166.015625 64.382812 154.992188 C 63.511719 154.136719 62.800781 153.121094 61.613281 151.683594 C 64.050781 149.578125 66.253906 147.5625 68.5625 145.707031 C 99.378906 120.835938 130.253906 96.070312 160.925781 71.042969 C 164.507812 68.113281 167.308594 68.171875 171.152344 69.855469 C 175.652344 71.828125 179.785156 75.351562 185.300781 74.0625 C 186.402344 75.265625 187.273438 76.992188 188.621094 77.574219 C 196.355469 80.878906 204.21875 83.914062 213.488281 87.613281 C 214.15625 86.554688 215.070312 85.074219 215.984375 83.609375 C 216.21875 85.378906 216.433594 87.148438 216.667969 88.902344 C 218.015625 88.121094 219.351562 87.351562 220.699219 86.566406 C 221.164062 88.121094 221.195312 90.585938 222.179688 91.066406 C 226.273438 93.054688 230.640625 94.445312 234.90625 96.054688 C 236.617188 91.023438 233.425781 91.660156 231.234375 91.269531 C 234.308594 83.898438 229.40625 78.125 228.1875 71.625 C 227.679688 71.582031 227.171875 71.535156 226.664062 71.492188 C 224.964844 75.496094 223.269531 79.503906 221.570312 83.507812 C 221.035156 82.855469 220.25 81.546875 219.988281 81.648438 C 218.496094 82.214844 217.132812 83.101562 215.722656 83.882812 C 217.742188 80.75 219.859375 77.6875 221.746094 74.46875 C 222.863281 72.582031 224.371094 70.476562 224.371094 68.460938 C 224.386719 61.84375 223.804688 55.230469 223.429688 48.25 C 220.6875 49.046875 218.816406 49.585938 216.957031 50.121094 C 218.234375 48.640625 219.527344 47.175781 220.773438 45.726562 C 220.773438 45.21875 220.917969 44.667969 220.757812 44.246094 C 217.175781 35.222656 217.246094 34.988281 225.242188 29.636719 C 227.128906 28.375 228.824219 26.71875 230.855469 25.847656 C 232.511719 25.136719 234.628906 24.890625 236.398438 25.226562 C 239.226562 25.746094 241.941406 26.921875 244.828125 27.867188 C 248.367188 37.152344 248.5 46.640625 244.582031 56.1875 C 242.679688 60.816406 243.1875 65.632812 245.164062 70.160156 C 248.570312 78.007812 251.878906 85.898438 255.726562 93.53125 C 267.042969 116.019531 278.402344 138.507812 290.152344 160.765625 C 296.015625 171.894531 302.53125 182.6875 309.246094 193.324219 C 311.886719 197.515625 315.820312 200.910156 319.257812 204.566406 C 321.1875 206.628906 323.234375 206.234375 325.207031 204.421875 C 329.285156 200.664062 331.429688 195.832031 332.390625 190.566406 C 335.480469 173.300781 344.589844 158.707031 352.933594 143.789062 C 354.179688 141.554688 357.039062 138.539062 358.953125 138.683594 C 367.484375 139.320312 375.40625 133.878906 384.285156 137.289062 C 393.527344 140.832031 401.492188 145.617188 407.226562 153.714844 C 412.316406 160.910156 417.265625 168.207031 422.167969 175.535156 C 425.796875 180.945312 427.042969 187.15625 427.1875 193.484375 C 427.289062 197.617188 427.582031 201.359375 430.378906 204.710938 C 431.613281 206.191406 432.09375 208.324219 432.773438 210.210938 C 433.789062 213.027344 433.5 215.507812 431.179688 217.800781 C 429.496094 219.453125 428.292969 221.601562 426.101562 224.605469 C 425.027344 222.601562 424.214844 221.0625 423.34375 219.410156 C 422.460938 220.46875 421.894531 220.949219 421.980469 221.09375 C 423.429688 223.980469 424.78125 226.941406 426.535156 229.652344 C 427.828125 231.65625 430.292969 232.816406 429.074219 236.066406 C 428.699219 237.050781 430.335938 239.082031 431.453125 240.273438 C 432.746094 241.664062 434.472656 242.652344 437.011719 244.566406 C 433.703125 245.089844 431.628906 245.421875 429.394531 245.773438 C 429.699219 246.46875 429.816406 247.324219 430.308594 247.730469 C 432.660156 249.632812 435.253906 251.242188 437.488281 253.257812 C 443.089844 258.308594 448.9375 263.152344 453.957031 268.738281 C 461.589844 277.242188 469.613281 285.03125 479.550781 290.878906 C 486.703125 295.085938 493.4375 300.035156 500.195312 304.867188 C 510.121094 311.945312 520.769531 313.964844 533.03125 312.671875 C 562.179688 309.609375 590.511719 302.296875 619.300781 297.496094 C 627.046875 296.203125 634.691406 295.652344 642.398438 298.453125 C 646.097656 299.800781 650.273438 299.816406 654.875 300.542969 C 651.40625 307.578125 647.925781 314.644531 651.695312 322.539062 C 650.304688 320.710938 648.910156 318.894531 647.183594 316.632812 C 644.660156 321.015625 641.757812 324.4375 642.703125 329.488281 C 643.847656 335.625 644.617188 341.820312 645.632812 347.984375 C 646.515625 353.355469 647.519531 358.691406 648.492188 364.207031 C 651.539062 363.769531 653.902344 363.421875 656.617188 363.03125 C 657.53125 369.761719 658.398438 376.074219 659.34375 383.023438 C 663.085938 381.488281 666.234375 380.210938 669.746094 378.773438 C 670.152344 381.285156 670.5 383.371094 670.832031 385.460938 C 675.753906 384.34375 675.753906 384.34375 677.058594 380.980469 Z M 642.136719 367.628906 C 642.195312 354.6875 639.742188 342.632812 637.578125 330.5625 C 637.449219 329.792969 636.332031 328.601562 635.722656 328.632812 C 634.648438 328.6875 633.183594 329.269531 632.691406 330.109375 C 631.980469 331.328125 631.863281 332.953125 631.734375 334.433594 C 631.195312 340.425781 630.644531 346.417969 630.296875 352.441406 C 630.09375 356.066406 630.253906 359.722656 630.253906 363.667969 C 632.183594 362.945312 633.226562 362.566406 634.632812 362.042969 C 634.300781 364.613281 634.023438 366.746094 633.617188 369.921875 C 636.855469 369.039062 639.351562 368.371094 642.136719 367.628906 Z M 428.191406 217.074219 C 431.484375 209.371094 430.527344 207.410156 422.777344 204.523438 C 424.839844 209.296875 426.507812 213.183594 428.191406 217.074219 Z M 641.351562 341.5 C 641.6875 341.472656 642.019531 341.441406 642.339844 341.414062 C 642.222656 339.90625 642.105469 338.394531 641.992188 336.886719 C 641.671875 336.914062 641.351562 336.945312 641.03125 336.972656 C 641.148438 338.484375 641.25 339.992188 641.351562 341.5 Z M 641.351562 341.5 " fill-opacity="1" fill-rule="nonzero"/></g><g fill="#000000" fill-opacity="1"><g transform="translate(593.501483, 707.361355)"><g><path d="M 0.34375 0 L 0.265625 0 L 0.265625 -0.28125 L 0.015625 -0.71875 L 0.109375 -0.71875 L 0.296875 -0.375 L 0.3125 -0.375 L 0.5 -0.71875 L 0.59375 -0.71875 L 0.34375 -0.28125 Z M 0.34375 0 "/></g></g><g transform="translate(594.115162, 707.361355)"><g><path d="M 0.3125 0.015625 C 0.257812 0.015625 0.210938 0.00390625 0.171875 -0.015625 C 0.140625 -0.0351562 0.113281 -0.0664062 0.09375 -0.109375 C 0.0703125 -0.160156 0.0625 -0.210938 0.0625 -0.265625 C 0.0625 -0.328125 0.0703125 -0.378906 0.09375 -0.421875 C 0.113281 -0.460938 0.140625 -0.492188 0.171875 -0.515625 C 0.210938 -0.535156 0.257812 -0.546875 0.3125 -0.546875 C 0.363281 -0.546875 0.40625 -0.535156 0.4375 -0.515625 C 0.476562 -0.492188 0.507812 -0.460938 0.53125 -0.421875 C 0.550781 -0.378906 0.5625 -0.328125 0.5625 -0.265625 C 0.5625 -0.210938 0.550781 -0.160156 0.53125 -0.109375 C 0.507812 -0.0664062 0.476562 -0.0351562 0.4375 -0.015625 C 0.40625 0.00390625 0.363281 0.015625 0.3125 0.015625 Z M 0.3125 -0.0625 C 0.363281 -0.0625 0.398438 -0.078125 0.421875 -0.109375 C 0.453125 -0.140625 0.46875 -0.191406 0.46875 -0.265625 C 0.46875 -0.335938 0.453125 -0.390625 0.421875 -0.421875 C 0.398438 -0.460938 0.363281 -0.484375 0.3125 -0.484375 C 0.257812 -0.484375 0.21875 -0.460938 0.1875 -0.421875 C 0.15625 -0.390625 0.140625 -0.335938 0.140625 -0.265625 C 0.140625 -0.191406 0.15625 -0.140625 0.1875 -0.109375 C 0.21875 -0.078125 0.257812 -0.0625 0.3125 -0.0625 Z M 0.3125 -0.0625 "/></g></g><g transform="translate(594.733235, 707.361355)"><g><path d="M 0.265625 0.015625 C 0.203125 0.015625 0.15625 0 0.125 -0.03125 C 0.09375 -0.0703125 0.078125 -0.125 0.078125 -0.1875 L 0.078125 -0.53125 L 0.171875 -0.53125 L 0.171875 -0.1875 C 0.171875 -0.101562 0.207031 -0.0625 0.28125 -0.0625 C 0.332031 -0.0625 0.367188 -0.078125 0.390625 -0.109375 C 0.421875 -0.140625 0.4375 -0.191406 0.4375 -0.265625 L 0.4375 -0.53125 L 0.515625 -0.53125 L 0.515625 0 L 0.4375 0 L 0.4375 -0.09375 C 0.414062 -0.0507812 0.390625 -0.0195312 0.359375 0 C 0.335938 0.0078125 0.304688 0.015625 0.265625 0.015625 Z M 0.265625 0.015625 "/></g></g><g transform="translate(595.34496, 707.361355)"><g><path d="M 0.09375 0 L 0.09375 -0.53125 L 0.171875 -0.53125 L 0.171875 -0.453125 L 0.1875 -0.453125 C 0.207031 -0.515625 0.253906 -0.546875 0.328125 -0.546875 C 0.359375 -0.546875 0.382812 -0.539062 0.40625 -0.53125 L 0.390625 -0.453125 L 0.375 -0.453125 C 0.351562 -0.460938 0.332031 -0.46875 0.3125 -0.46875 C 0.269531 -0.46875 0.234375 -0.453125 0.203125 -0.421875 C 0.179688 -0.390625 0.171875 -0.335938 0.171875 -0.265625 L 0.171875 0 Z M 0.09375 0 "/></g></g><g transform="translate(595.760915, 707.361355)"><g/></g><g transform="translate(596.005995, 707.361355)"><g><path d="M 0.09375 0.21875 L 0.09375 -0.53125 L 0.171875 -0.53125 L 0.171875 -0.453125 L 0.1875 -0.453125 C 0.226562 -0.515625 0.285156 -0.546875 0.359375 -0.546875 C 0.398438 -0.546875 0.4375 -0.535156 0.46875 -0.515625 C 0.507812 -0.492188 0.535156 -0.460938 0.546875 -0.421875 C 0.566406 -0.378906 0.578125 -0.328125 0.578125 -0.265625 C 0.578125 -0.203125 0.566406 -0.148438 0.546875 -0.109375 C 0.535156 -0.0664062 0.507812 -0.0351562 0.46875 -0.015625 C 0.4375 0.00390625 0.398438 0.015625 0.359375 0.015625 C 0.316406 0.015625 0.28125 0.0078125 0.25 0 C 0.226562 -0.0195312 0.207031 -0.046875 0.1875 -0.078125 L 0.171875 -0.0625 L 0.171875 0.21875 Z M 0.34375 -0.0625 C 0.445312 -0.0625 0.5 -0.128906 0.5 -0.265625 C 0.5 -0.410156 0.445312 -0.484375 0.34375 -0.484375 C 0.300781 -0.484375 0.269531 -0.472656 0.25 -0.453125 C 0.226562 -0.441406 0.207031 -0.421875 0.1875 -0.390625 C 0.175781 -0.359375 0.171875 -0.316406 0.171875 -0.265625 C 0.171875 -0.222656 0.175781 -0.1875 0.1875 -0.15625 C 0.207031 -0.125 0.226562 -0.0976562 0.25 -0.078125 C 0.269531 -0.0664062 0.300781 -0.0625 0.34375 -0.0625 Z M 0.34375 -0.0625 "/></g></g><g transform="translate(596.648479, 707.361355)"><g><path d="M 0.21875 0.015625 C 0.164062 0.015625 0.125 0 0.09375 -0.03125 C 0.0625 -0.0625 0.046875 -0.101562 0.046875 -0.15625 C 0.046875 -0.1875 0.0507812 -0.210938 0.0625 -0.234375 C 0.0820312 -0.253906 0.101562 -0.269531 0.125 -0.28125 C 0.15625 -0.300781 0.195312 -0.3125 0.25 -0.3125 C 0.28125 -0.320312 0.304688 -0.328125 0.328125 -0.328125 C 0.347656 -0.335938 0.363281 -0.347656 0.375 -0.359375 C 0.382812 -0.367188 0.390625 -0.382812 0.390625 -0.40625 C 0.390625 -0.425781 0.378906 -0.441406 0.359375 -0.453125 C 0.335938 -0.472656 0.3125 -0.484375 0.28125 -0.484375 C 0.238281 -0.484375 0.207031 -0.472656 0.1875 -0.453125 C 0.164062 -0.441406 0.144531 -0.425781 0.125 -0.40625 L 0.109375 -0.40625 L 0.078125 -0.453125 C 0.0976562 -0.484375 0.125 -0.503906 0.15625 -0.515625 C 0.1875 -0.535156 0.226562 -0.546875 0.28125 -0.546875 C 0.34375 -0.546875 0.390625 -0.53125 0.421875 -0.5 C 0.453125 -0.476562 0.46875 -0.441406 0.46875 -0.390625 L 0.46875 -0.109375 C 0.46875 -0.078125 0.476562 -0.0625 0.5 -0.0625 C 0.507812 -0.0625 0.519531 -0.0625 0.53125 -0.0625 L 0.546875 -0.015625 C 0.535156 -0.00390625 0.523438 0 0.515625 0 C 0.503906 0 0.492188 0 0.484375 0 C 0.453125 0 0.429688 -0.00390625 0.421875 -0.015625 C 0.410156 -0.0234375 0.398438 -0.046875 0.390625 -0.078125 L 0.375 -0.078125 C 0.363281 -0.046875 0.34375 -0.0195312 0.3125 0 C 0.289062 0.0078125 0.257812 0.015625 0.21875 0.015625 Z M 0.234375 -0.046875 C 0.265625 -0.046875 0.289062 -0.0507812 0.3125 -0.0625 C 0.332031 -0.0820312 0.347656 -0.101562 0.359375 -0.125 C 0.378906 -0.15625 0.390625 -0.1875 0.390625 -0.21875 L 0.390625 -0.28125 L 0.375 -0.296875 C 0.363281 -0.285156 0.347656 -0.273438 0.328125 -0.265625 C 0.316406 -0.265625 0.296875 -0.257812 0.265625 -0.25 C 0.234375 -0.25 0.207031 -0.242188 0.1875 -0.234375 C 0.164062 -0.222656 0.148438 -0.210938 0.140625 -0.203125 C 0.140625 -0.191406 0.140625 -0.175781 0.140625 -0.15625 C 0.140625 -0.125 0.144531 -0.0976562 0.15625 -0.078125 C 0.175781 -0.0546875 0.203125 -0.046875 0.234375 -0.046875 Z M 0.234375 -0.046875 "/></g></g><g transform="translate(597.205525, 707.361355)"><g><path d="M 0.09375 0 L 0.09375 -0.53125 L 0.171875 -0.53125 L 0.171875 -0.453125 L 0.1875 -0.453125 C 0.207031 -0.515625 0.253906 -0.546875 0.328125 -0.546875 C 0.359375 -0.546875 0.382812 -0.539062 0.40625 -0.53125 L 0.390625 -0.453125 L 0.375 -0.453125 C 0.351562 -0.460938 0.332031 -0.46875 0.3125 -0.46875 C 0.269531 -0.46875 0.234375 -0.453125 0.203125 -0.421875 C 0.179688 -0.390625 0.171875 -0.335938 0.171875 -0.265625 L 0.171875 0 Z M 0.09375 0 "/></g></g><g transform="translate(597.621479, 707.361355)"><g><path d="M 0.21875 0.015625 C 0.164062 0.015625 0.125 0 0.09375 -0.03125 C 0.0625 -0.0625 0.046875 -0.101562 0.046875 -0.15625 C 0.046875 -0.1875 0.0507812 -0.210938 0.0625 -0.234375 C 0.0820312 -0.253906 0.101562 -0.269531 0.125 -0.28125 C 0.15625 -0.300781 0.195312 -0.3125 0.25 -0.3125 C 0.28125 -0.320312 0.304688 -0.328125 0.328125 -0.328125 C 0.347656 -0.335938 0.363281 -0.347656 0.375 -0.359375 C 0.382812 -0.367188 0.390625 -0.382812 0.390625 -0.40625 C 0.390625 -0.425781 0.378906 -0.441406 0.359375 -0.453125 C 0.335938 -0.472656 0.3125 -0.484375 0.28125 -0.484375 C 0.238281 -0.484375 0.207031 -0.472656 0.1875 -0.453125 C 0.164062 -0.441406 0.144531 -0.425781 0.125 -0.40625 L 0.109375 -0.40625 L 0.078125 -0.453125 C 0.0976562 -0.484375 0.125 -0.503906 0.15625 -0.515625 C 0.1875 -0.535156 0.226562 -0.546875 0.28125 -0.546875 C 0.34375 -0.546875 0.390625 -0.53125 0.421875 -0.5 C 0.453125 -0.476562 0.46875 -0.441406 0.46875 -0.390625 L 0.46875 -0.109375 C 0.46875 -0.078125 0.476562 -0.0625 0.5 -0.0625 C 0.507812 -0.0625 0.519531 -0.0625 0.53125 -0.0625 L 0.546875 -0.015625 C 0.535156 -0.00390625 0.523438 0 0.515625 0 C 0.503906 0 0.492188 0 0.484375 0 C 0.453125 0 0.429688 -0.00390625 0.421875 -0.015625 C 0.410156 -0.0234375 0.398438 -0.046875 0.390625 -0.078125 L 0.375 -0.078125 C 0.363281 -0.046875 0.34375 -0.0195312 0.3125 0 C 0.289062 0.0078125 0.257812 0.015625 0.21875 0.015625 Z M 0.234375 -0.046875 C 0.265625 -0.046875 0.289062 -0.0507812 0.3125 -0.0625 C 0.332031 -0.0820312 0.347656 -0.101562 0.359375 -0.125 C 0.378906 -0.15625 0.390625 -0.1875 0.390625 -0.21875 L 0.390625 -0.28125 L 0.375 -0.296875 C 0.363281 -0.285156 0.347656 -0.273438 0.328125 -0.265625 C 0.316406 -0.265625 0.296875 -0.257812 0.265625 -0.25 C 0.234375 -0.25 0.207031 -0.242188 0.1875 -0.234375 C 0.164062 -0.222656 0.148438 -0.210938 0.140625 -0.203125 C 0.140625 -0.191406 0.140625 -0.175781 0.140625 -0.15625 C 0.140625 -0.125 0.144531 -0.0976562 0.15625 -0.078125 C 0.175781 -0.0546875 0.203125 -0.046875 0.234375 -0.046875 Z M 0.234375 -0.046875 "/></g></g><g transform="translate(598.178526, 707.361355)"><g><path d="M 0.28125 0.234375 C 0.195312 0.234375 0.132812 0.21875 0.09375 0.1875 C 0.0507812 0.15625 0.03125 0.117188 0.03125 0.078125 C 0.03125 0.046875 0.0390625 0.0195312 0.0625 0 C 0.0820312 -0.0195312 0.109375 -0.03125 0.140625 -0.03125 L 0.140625 -0.046875 C 0.117188 -0.0546875 0.101562 -0.0664062 0.09375 -0.078125 C 0.09375 -0.0859375 0.09375 -0.101562 0.09375 -0.125 C 0.09375 -0.144531 0.0976562 -0.160156 0.109375 -0.171875 C 0.117188 -0.191406 0.140625 -0.203125 0.171875 -0.203125 L 0.171875 -0.21875 C 0.109375 -0.25 0.078125 -0.300781 0.078125 -0.375 C 0.078125 -0.40625 0.0820312 -0.429688 0.09375 -0.453125 C 0.113281 -0.484375 0.140625 -0.503906 0.171875 -0.515625 C 0.203125 -0.535156 0.238281 -0.546875 0.28125 -0.546875 C 0.320312 -0.546875 0.359375 -0.535156 0.390625 -0.515625 C 0.398438 -0.523438 0.40625 -0.535156 0.40625 -0.546875 C 0.414062 -0.566406 0.421875 -0.585938 0.421875 -0.609375 L 0.4375 -0.609375 L 0.5 -0.59375 C 0.5 -0.570312 0.488281 -0.550781 0.46875 -0.53125 C 0.457031 -0.507812 0.441406 -0.492188 0.421875 -0.484375 L 0.421875 -0.46875 C 0.441406 -0.457031 0.453125 -0.441406 0.453125 -0.421875 C 0.460938 -0.398438 0.46875 -0.378906 0.46875 -0.359375 C 0.46875 -0.328125 0.457031 -0.296875 0.4375 -0.265625 C 0.425781 -0.242188 0.40625 -0.222656 0.375 -0.203125 C 0.34375 -0.191406 0.3125 -0.1875 0.28125 -0.1875 C 0.269531 -0.1875 0.257812 -0.1875 0.25 -0.1875 C 0.238281 -0.1875 0.226562 -0.1875 0.21875 -0.1875 C 0.207031 -0.1875 0.195312 -0.179688 0.1875 -0.171875 C 0.175781 -0.160156 0.171875 -0.148438 0.171875 -0.140625 C 0.171875 -0.117188 0.175781 -0.101562 0.1875 -0.09375 C 0.195312 -0.09375 0.210938 -0.09375 0.234375 -0.09375 L 0.359375 -0.078125 C 0.421875 -0.078125 0.460938 -0.0664062 0.484375 -0.046875 C 0.515625 -0.0234375 0.53125 0.0078125 0.53125 0.0625 C 0.53125 0.09375 0.519531 0.117188 0.5 0.140625 C 0.476562 0.171875 0.445312 0.191406 0.40625 0.203125 C 0.375 0.222656 0.332031 0.234375 0.28125 0.234375 Z M 0.28125 -0.25 C 0.3125 -0.25 0.335938 -0.257812 0.359375 -0.28125 C 0.378906 -0.300781 0.390625 -0.328125 0.390625 -0.359375 C 0.390625 -0.398438 0.378906 -0.429688 0.359375 -0.453125 C 0.335938 -0.472656 0.3125 -0.484375 0.28125 -0.484375 C 0.238281 -0.484375 0.207031 -0.472656 0.1875 -0.453125 C 0.164062 -0.429688 0.15625 -0.398438 0.15625 -0.359375 C 0.15625 -0.328125 0.164062 -0.300781 0.1875 -0.28125 C 0.207031 -0.257812 0.238281 -0.25 0.28125 -0.25 Z M 0.28125 0.15625 C 0.320312 0.15625 0.351562 0.148438 0.375 0.140625 C 0.394531 0.140625 0.410156 0.128906 0.421875 0.109375 C 0.441406 0.0976562 0.453125 0.0820312 0.453125 0.0625 C 0.453125 0.0507812 0.445312 0.0390625 0.4375 0.03125 C 0.425781 0.0195312 0.414062 0.0078125 0.40625 0 C 0.394531 0 0.378906 0 0.359375 0 L 0.234375 -0.015625 L 0.21875 -0.015625 C 0.144531 -0.015625 0.109375 0.0078125 0.109375 0.0625 C 0.109375 0.125 0.164062 0.15625 0.28125 0.15625 Z M 0.28125 0.15625 "/></g></g><g transform="translate(598.730202, 707.361355)"><g><path d="M 0.09375 0 L 0.09375 -0.53125 L 0.171875 -0.53125 L 0.171875 -0.453125 L 0.1875 -0.453125 C 0.207031 -0.515625 0.253906 -0.546875 0.328125 -0.546875 C 0.359375 -0.546875 0.382812 -0.539062 0.40625 -0.53125 L 0.390625 -0.453125 L 0.375 -0.453125 C 0.351562 -0.460938 0.332031 -0.46875 0.3125 -0.46875 C 0.269531 -0.46875 0.234375 -0.453125 0.203125 -0.421875 C 0.179688 -0.390625 0.171875 -0.335938 0.171875 -0.265625 L 0.171875 0 Z M 0.09375 0 "/></g></g><g transform="translate(599.146156, 707.361355)"><g><path d="M 0.21875 0.015625 C 0.164062 0.015625 0.125 0 0.09375 -0.03125 C 0.0625 -0.0625 0.046875 -0.101562 0.046875 -0.15625 C 0.046875 -0.1875 0.0507812 -0.210938 0.0625 -0.234375 C 0.0820312 -0.253906 0.101562 -0.269531 0.125 -0.28125 C 0.15625 -0.300781 0.195312 -0.3125 0.25 -0.3125 C 0.28125 -0.320312 0.304688 -0.328125 0.328125 -0.328125 C 0.347656 -0.335938 0.363281 -0.347656 0.375 -0.359375 C 0.382812 -0.367188 0.390625 -0.382812 0.390625 -0.40625 C 0.390625 -0.425781 0.378906 -0.441406 0.359375 -0.453125 C 0.335938 -0.472656 0.3125 -0.484375 0.28125 -0.484375 C 0.238281 -0.484375 0.207031 -0.472656 0.1875 -0.453125 C 0.164062 -0.441406 0.144531 -0.425781 0.125 -0.40625 L 0.109375 -0.40625 L 0.078125 -0.453125 C 0.0976562 -0.484375 0.125 -0.503906 0.15625 -0.515625 C 0.1875 -0.535156 0.226562 -0.546875 0.28125 -0.546875 C 0.34375 -0.546875 0.390625 -0.53125 0.421875 -0.5 C 0.453125 -0.476562 0.46875 -0.441406 0.46875 -0.390625 L 0.46875 -0.109375 C 0.46875 -0.078125 0.476562 -0.0625 0.5 -0.0625 C 0.507812 -0.0625 0.519531 -0.0625 0.53125 -0.0625 L 0.546875 -0.015625 C 0.535156 -0.00390625 0.523438 0 0.515625 0 C 0.503906 0 0.492188 0 0.484375 0 C 0.453125 0 0.429688 -0.00390625 0.421875 -0.015625 C 0.410156 -0.0234375 0.398438 -0.046875 0.390625 -0.078125 L 0.375 -0.078125 C 0.363281 -0.046875 0.34375 -0.0195312 0.3125 0 C 0.289062 0.0078125 0.257812 0.015625 0.21875 0.015625 Z M 0.234375 -0.046875 C 0.265625 -0.046875 0.289062 -0.0507812 0.3125 -0.0625 C 0.332031 -0.0820312 0.347656 -0.101562 0.359375 -0.125 C 0.378906 -0.15625 0.390625 -0.1875 0.390625 -0.21875 L 0.390625 -0.28125 L 0.375 -0.296875 C 0.363281 -0.285156 0.347656 -0.273438 0.328125 -0.265625 C 0.316406 -0.265625 0.296875 -0.257812 0.265625 -0.25 C 0.234375 -0.25 0.207031 -0.242188 0.1875 -0.234375 C 0.164062 -0.222656 0.148438 -0.210938 0.140625 -0.203125 C 0.140625 -0.191406 0.140625 -0.175781 0.140625 -0.15625 C 0.140625 -0.125 0.144531 -0.0976562 0.15625 -0.078125 C 0.175781 -0.0546875 0.203125 -0.046875 0.234375 -0.046875 Z M 0.234375 -0.046875 "/></g></g><g transform="translate(599.703202, 707.361355)"><g><path d="M 0.09375 0.21875 L 0.09375 -0.53125 L 0.171875 -0.53125 L 0.171875 -0.453125 L 0.1875 -0.453125 C 0.226562 -0.515625 0.285156 -0.546875 0.359375 -0.546875 C 0.398438 -0.546875 0.4375 -0.535156 0.46875 -0.515625 C 0.507812 -0.492188 0.535156 -0.460938 0.546875 -0.421875 C 0.566406 -0.378906 0.578125 -0.328125 0.578125 -0.265625 C 0.578125 -0.203125 0.566406 -0.148438 0.546875 -0.109375 C 0.535156 -0.0664062 0.507812 -0.0351562 0.46875 -0.015625 C 0.4375 0.00390625 0.398438 0.015625 0.359375 0.015625 C 0.316406 0.015625 0.28125 0.0078125 0.25 0 C 0.226562 -0.0195312 0.207031 -0.046875 0.1875 -0.078125 L 0.171875 -0.0625 L 0.171875 0.21875 Z M 0.34375 -0.0625 C 0.445312 -0.0625 0.5 -0.128906 0.5 -0.265625 C 0.5 -0.410156 0.445312 -0.484375 0.34375 -0.484375 C 0.300781 -0.484375 0.269531 -0.472656 0.25 -0.453125 C 0.226562 -0.441406 0.207031 -0.421875 0.1875 -0.390625 C 0.175781 -0.359375 0.171875 -0.316406 0.171875 -0.265625 C 0.171875 -0.222656 0.175781 -0.1875 0.1875 -0.15625 C 0.207031 -0.125 0.226562 -0.0976562 0.25 -0.078125 C 0.269531 -0.0664062 0.300781 -0.0625 0.34375 -0.0625 Z M 0.34375 -0.0625 "/></g></g><g transform="translate(600.345685, 707.361355)"><g><path d="M 0.09375 0 L 0.09375 -0.75 L 0.171875 -0.75 L 0.171875 -0.46875 L 0.1875 -0.453125 C 0.21875 -0.515625 0.269531 -0.546875 0.34375 -0.546875 C 0.414062 -0.546875 0.460938 -0.53125 0.484375 -0.5 C 0.515625 -0.46875 0.53125 -0.414062 0.53125 -0.34375 L 0.53125 0 L 0.453125 0 L 0.453125 -0.34375 C 0.453125 -0.375 0.445312 -0.398438 0.4375 -0.421875 C 0.4375 -0.441406 0.425781 -0.457031 0.40625 -0.46875 C 0.382812 -0.476562 0.359375 -0.484375 0.328125 -0.484375 C 0.285156 -0.484375 0.25 -0.46875 0.21875 -0.4375 C 0.1875 -0.40625 0.171875 -0.351562 0.171875 -0.28125 L 0.171875 0 Z M 0.09375 0 "/></g></g><g transform="translate(600.965711, 707.361355)"><g/></g><g transform="translate(601.210792, 707.361355)"><g><path d="M 0.359375 -0.078125 L 0.390625 -0.03125 C 0.378906 -0.0195312 0.363281 -0.0078125 0.34375 0 C 0.320312 0.0078125 0.296875 0.015625 0.265625 0.015625 C 0.171875 0.015625 0.125 -0.0351562 0.125 -0.140625 L 0.125 -0.46875 L 0.03125 -0.46875 L 0.03125 -0.546875 L 0.125 -0.546875 L 0.125 -0.65625 L 0.203125 -0.671875 L 0.203125 -0.546875 L 0.375 -0.546875 L 0.375 -0.46875 L 0.203125 -0.46875 L 0.203125 -0.15625 C 0.203125 -0.09375 0.226562 -0.0625 0.28125 -0.0625 C 0.3125 -0.0625 0.335938 -0.0664062 0.359375 -0.078125 Z M 0.359375 -0.078125 "/></g></g><g transform="translate(601.620887, 707.361355)"><g><path d="M 0.515625 -0.25 L 0.140625 -0.25 C 0.140625 -0.1875 0.15625 -0.140625 0.1875 -0.109375 C 0.21875 -0.078125 0.257812 -0.0625 0.3125 -0.0625 C 0.351562 -0.0625 0.382812 -0.0664062 0.40625 -0.078125 C 0.425781 -0.0976562 0.441406 -0.117188 0.453125 -0.140625 L 0.46875 -0.140625 L 0.515625 -0.109375 C 0.503906 -0.078125 0.476562 -0.046875 0.4375 -0.015625 C 0.40625 0.00390625 0.363281 0.015625 0.3125 0.015625 C 0.257812 0.015625 0.210938 0.00390625 0.171875 -0.015625 C 0.140625 -0.0351562 0.113281 -0.0664062 0.09375 -0.109375 C 0.0703125 -0.148438 0.0625 -0.203125 0.0625 -0.265625 C 0.0625 -0.328125 0.0703125 -0.378906 0.09375 -0.421875 C 0.113281 -0.460938 0.140625 -0.492188 0.171875 -0.515625 C 0.210938 -0.535156 0.257812 -0.546875 0.3125 -0.546875 C 0.375 -0.546875 0.425781 -0.523438 0.46875 -0.484375 C 0.507812 -0.453125 0.53125 -0.394531 0.53125 -0.3125 C 0.53125 -0.28125 0.53125 -0.257812 0.53125 -0.25 Z M 0.453125 -0.3125 C 0.441406 -0.375 0.425781 -0.414062 0.40625 -0.4375 C 0.382812 -0.46875 0.351562 -0.484375 0.3125 -0.484375 C 0.257812 -0.484375 0.21875 -0.46875 0.1875 -0.4375 C 0.164062 -0.414062 0.148438 -0.375 0.140625 -0.3125 Z M 0.453125 -0.3125 "/></g></g><g transform="translate(602.195021, 707.361355)"><g><path d="M 0.109375 0 L 0.03125 0 L 0.1875 -0.28125 L 0.03125 -0.53125 L 0.125 -0.53125 L 0.25 -0.328125 L 0.265625 -0.328125 L 0.390625 -0.53125 L 0.46875 -0.53125 L 0.3125 -0.28125 L 0.484375 0 L 0.390625 0 L 0.25 -0.234375 Z M 0.109375 0 "/></g></g><g transform="translate(602.6969, 707.361355)"><g><path d="M 0.359375 -0.078125 L 0.390625 -0.03125 C 0.378906 -0.0195312 0.363281 -0.0078125 0.34375 0 C 0.320312 0.0078125 0.296875 0.015625 0.265625 0.015625 C 0.171875 0.015625 0.125 -0.0351562 0.125 -0.140625 L 0.125 -0.46875 L 0.03125 -0.46875 L 0.03125 -0.546875 L 0.125 -0.546875 L 0.125 -0.65625 L 0.203125 -0.671875 L 0.203125 -0.546875 L 0.375 -0.546875 L 0.375 -0.46875 L 0.203125 -0.46875 L 0.203125 -0.15625 C 0.203125 -0.09375 0.226562 -0.0625 0.28125 -0.0625 C 0.3125 -0.0625 0.335938 -0.0664062 0.359375 -0.078125 Z M 0.359375 -0.078125 "/></g></g></g></svg>