<svg xmlns="http://www.w3.org/2000/svg" xmlns:xlink="http://www.w3.org/1999/xlink" width="1100" zoomAndPan="magnify" viewBox="0 0 824.88 824.999997" height="1100" preserveAspectRatio="xMidYMid meet" version="1.0"><defs><g/><clipPath id="7069c1d977"><path d="M 207 0.0585938 L 618.660156 0.0585938 L 618.660156 824.9375 L 207 824.9375 Z M 207 0.0585938 " clip-rule="nonzero"/></clipPath></defs><g clip-path="url(#7069c1d977)"><path fill="#ece9d8" d="M 615.066406 670.757812 C 610.402344 653.175781 605.445312 635.664062 600.78125 618.078125 C 595.660156 598.800781 590.890625 579.441406 585.652344 560.199219 C 582.625 549.054688 579.09375 538.054688 575.609375 527.042969 C 571.71875 514.707031 567.71875 502.410156 563.546875 490.167969 C 562.015625 485.65625 559.054688 482.78125 553.878906 481.644531 C 547.097656 480.171875 539.589844 467.523438 539.882812 460.683594 C 540.5625 444.269531 540.867188 427.84375 541.285156 411.417969 C 541.378906 407.710938 541.296875 404.007812 541.296875 400.523438 C 553.351562 398.335938 554.90625 396.992188 558.238281 386.46875 C 558.765625 384.808594 559.054688 383.066406 559.476562 381.359375 C 562.597656 368.898438 562.0625 366.828125 550.859375 361.417969 C 545.074219 358.621094 542.980469 355.007812 542.175781 348.695312 C 539.113281 324.800781 538.785156 300.519531 531.875 277.101562 C 528.625 266.066406 526.789062 254.5625 525.058594 243.152344 C 522.171875 224.117188 519.996094 204.96875 517.214844 185.910156 C 516.628906 181.867188 515.625 177.34375 513.285156 174.171875 C 504.027344 161.722656 493.445312 150.863281 478.492188 144.710938 C 468.871094 140.761719 459.484375 135.652344 451.019531 129.621094 C 444.929688 125.292969 440.964844 118.09375 435.25 113.101562 C 428.832031 107.488281 427.800781 101.609375 429.625 93.507812 C 433.613281 75.769531 437.226562 57.882812 439.574219 39.878906 C 440.613281 31.847656 439.046875 22.8125 432.070312 16.953125 C 421.710938 8.265625 408.640625 4.945312 396.234375 0.445312 C 395.160156 0.0585938 393.628906 1.101562 392.296875 1.207031 C 389.957031 1.394531 387.433594 1.941406 385.292969 1.300781 C 382.289062 0.410156 380.019531 0.0585938 377.917969 2.949219 C 377.355469 3.707031 375.367188 4.234375 374.503906 3.835938 C 367.101562 0.445312 360.800781 4.597656 354.734375 7.214844 C 340.609375 13.328125 334.285156 30.5625 343.089844 44.671875 C 344.75 47.328125 346.621094 49.851562 347.753906 51.5 C 347.203125 56.585938 345.367188 61.179688 346.65625 64.59375 C 348.46875 69.410156 347.25 72.460938 344.691406 76.0625 C 342.890625 78.589844 341.019531 81.371094 340.339844 84.304688 C 339.910156 86.1875 341.136719 90.105469 342.363281 90.453125 C 352.148438 93.238281 351.867188 101.1875 352.6875 108.808594 C 353.167969 113.171875 354.125 117.472656 354.875 121.820312 C 358.835938 121.820312 361.597656 121.84375 364.355469 121.808594 C 366.890625 121.773438 369.988281 119.878906 371.546875 124.675781 C 370.09375 125.75 368.550781 127 366.914062 128.121094 C 353.46875 137.382812 338.414062 143.167969 322.816406 147.238281 C 311.277344 150.242188 306.050781 157.339844 304.390625 168.503906 C 302.441406 181.644531 299.808594 194.691406 297.855469 207.84375 C 296.066406 219.957031 294.851562 232.148438 293.273438 244.296875 C 291.273438 259.566406 288.644531 274.574219 284.097656 289.457031 C 279.546875 304.339844 277.839844 320.089844 274.683594 336.527344 C 270.347656 336.527344 265.496094 336.210938 260.703125 336.609375 C 254.554688 337.121094 253.371094 338.910156 254.765625 344.734375 C 256.667969 352.71875 260.140625 359.964844 266.046875 365.753906 C 268.769531 368.429688 269.996094 370.839844 269.15625 374.929688 C 265.507812 392.726562 262.257812 410.601562 258.984375 428.464844 C 258.421875 431.503906 257.207031 435.410156 258.503906 437.628906 C 262.410156 444.328125 258.210938 447.800781 254.601562 452.230469 C 254.167969 452.769531 253.734375 453.308594 253.3125 453.855469 L 231.171875 476.609375 C 226.261719 479.0625 225.78125 482.992188 225.804688 487.972656 C 225.851562 496.363281 225.675781 504.78125 224.90625 513.128906 C 222.847656 535.085938 220.296875 556.996094 218.171875 578.949219 C 214.699219 614.839844 211.8125 650.792969 207.824219 686.613281 C 206.433594 699.097656 209.390625 708.230469 219.667969 715.675781 C 234.128906 726.140625 248.183594 737.1875 262.175781 748.28125 C 267.765625 752.703125 273.632812 754.710938 280.660156 753.671875 C 291.039062 752.128906 301.433594 750.726562 311.816406 749.242188 C 316.199219 748.609375 320.574219 747.941406 325.832031 747.148438 C 325.226562 734.757812 324.5 723.273438 324.160156 711.769531 C 323.8125 699.859375 323.835938 687.933594 323.730469 676.019531 C 323.625 664.457031 323.34375 652.882812 323.578125 641.320312 C 323.800781 629.710938 322.371094 617.964844 325.960938 606.4375 C 327.832031 613.53125 329.058594 620.652344 329.339844 627.820312 C 330.636719 660.832031 335.746094 693.289062 342.9375 725.472656 C 343.582031 728.335938 343.601562 731.9375 342.421875 734.488281 C 337.21875 745.664062 337.804688 756.148438 344.773438 766.308594 C 347.707031 770.589844 347.15625 774.5625 344.5625 778.972656 C 338.238281 789.738281 331.46875 799.828125 318.433594 803.347656 C 316.773438 803.792969 315.265625 804.820312 313.675781 805.554688 C 310.226562 807.144531 307.199219 809.695312 308.402344 813.542969 C 309.324219 816.488281 311.804688 820.101562 314.46875 821.105469 C 319.917969 823.164062 326.042969 824.941406 331.738281 824.554688 C 349.519531 823.386719 367.230469 821.058594 384.988281 819.386719 C 391.09375 818.8125 393.5 815.539062 393.675781 809.753906 C 393.839844 804.292969 394.285156 798.835938 394.632812 792.894531 C 399.871094 793.375 403.988281 793.867188 408.113281 794.109375 C 431.144531 795.492188 440.265625 787.191406 441.210938 764.066406 C 441.527344 756.359375 441.691406 748.65625 442.285156 740.976562 C 442.578125 737.175781 443.210938 733.363281 448.238281 732.300781 C 453.417969 731.214844 455.207031 726.957031 456.117188 722.234375 C 456.691406 719.253906 457.378906 716.296875 458.070312 713.046875 C 468.289062 715.464844 478.074219 716.867188 487.179688 720.152344 C 499.480469 724.585938 510.738281 723.285156 522.824219 719.066406 C 552.542969 708.695312 582.601562 699.332031 612.507812 689.535156 C 614.121094 689.007812 615.617188 688.132812 618.445312 686.835938 C 617.335938 681.410156 616.472656 676.007812 615.066406 670.757812 Z M 268.535156 475.777344 C 257.640625 480.207031 247.574219 480.710938 236.023438 478.640625 C 236.375 478.140625 236.714844 477.660156 237.039062 477.191406 L 256.902344 455.167969 C 259.03125 453.085938 261.195312 450.980469 263.414062 448.792969 C 273.339844 457.023438 267.003906 467.007812 268.535156 475.777344 Z M 274.300781 478.246094 C 272.851562 477.496094 271.621094 474.84375 271.621094 473.078125 C 271.632812 467.898438 271.84375 462.625 272.875 457.5625 C 273.292969 455.480469 274.148438 454.078125 275.316406 453.425781 L 290.515625 485.386719 C 284.644531 482.886719 279.316406 480.851562 274.300781 478.246094 Z M 295.894531 484.847656 C 295.226562 483.574219 294.523438 482.300781 293.824219 481.050781 L 281.476562 454.277344 C 281.839844 453.414062 282.203125 452.898438 282.566406 452.640625 C 286.585938 459.457031 296.488281 476.292969 303.363281 487.984375 C 304.34375 490.015625 305.386719 492.167969 306.507812 494.496094 C 299.550781 492.917969 297.925781 488.730469 295.894531 484.847656 Z M 318.164062 501.007812 C 316.46875 500.550781 315.148438 499.871094 314.082031 499.042969 L 286.609375 447.800781 C 291.296875 446 293.355469 442.503906 293.507812 436.660156 C 293.765625 426.734375 294.234375 417.265625 288.152344 408.519531 C 284.238281 402.882812 286.0625 396.511719 287.488281 390.269531 C 291.4375 373.003906 291.320312 372.96875 308.671875 371.15625 C 310.34375 370.980469 312.039062 371.132812 314.597656 371.132812 C 313.207031 378.789062 311.535156 385.804688 310.773438 392.898438 C 310.015625 399.878906 308.953125 407.515625 318.164062 409.058594 C 318.164062 440.097656 318.164062 470.082031 318.164062 501.007812 Z M 322.441406 345.328125 C 321.542969 345.386719 320.628906 345.433594 319.730469 345.492188 C 319.238281 344.007812 318.105469 342.382812 318.363281 341.039062 C 322.453125 319.949219 326.722656 298.90625 331.984375 278.046875 C 333.609375 301.300781 327.015625 323.152344 322.441406 345.328125 Z M 409.398438 728.417969 C 410.136719 738.894531 407.601562 748.1875 399.625 757.648438 C 396.097656 740.167969 390.988281 724.386719 391.511719 708.03125 C 392.542969 675.679688 386.8125 643.800781 386.089844 611.625 C 385.796875 598.402344 387.140625 585.15625 387.773438 571.914062 C 388.15625 563.890625 389.351562 555.835938 388.8125 547.875 C 388.167969 538.289062 388.871094 529.101562 391.347656 519.839844 C 393.488281 511.878906 394.75 503.695312 398.445312 495.546875 C 398.984375 501.472656 400 507.414062 399.988281 513.339844 C 399.929688 531.988281 402.292969 550.296875 406.230469 568.511719 C 410.136719 586.539062 407.636719 604.753906 407.179688 622.929688 C 406.839844 636.152344 407.695312 649.457031 408.734375 662.667969 C 410.066406 679.738281 412.789062 696.679688 409.226562 713.851562 C 408.242188 718.480469 409.0625 723.554688 409.398438 728.417969 Z M 468.335938 503.050781 C 469.421875 494.238281 470.332031 485.410156 471.65625 476.628906 C 473.421875 464.871094 475.757812 453.179688 477.335938 441.394531 C 478.308594 434.132812 478.402344 426.746094 478.75 419.402344 C 478.996094 414.199219 478.832031 409.21875 481.929688 404.308594 C 483.742188 401.445312 483.636719 396.851562 483.230469 393.167969 C 481.371094 376.472656 478.433594 359.875 477.148438 343.144531 C 476.050781 328.902344 476.566406 314.535156 476.601562 300.226562 C 476.613281 294.707031 477.265625 289.199219 477.617188 283.695312 C 478.457031 283.554688 479.300781 283.414062 480.140625 283.273438 C 482.703125 291.539062 485.578125 299.734375 487.730469 308.105469 C 491.050781 320.976562 493.890625 333.976562 496.90625 346.929688 C 498.113281 352.109375 499.128906 357.253906 494.6875 361.660156 C 493.75 362.585938 493.027344 364.058594 492.851562 365.367188 C 491.378906 375.75 499.679688 382.554688 502.648438 391.34375 C 504.226562 396.023438 508.808594 396.453125 513.191406 396.429688 C 513.765625 396.429688 514.328125 397.085938 515.378906 397.726562 C 514.117188 409.875 513.882812 422.023438 506.679688 433.503906 C 502.261719 440.539062 501.070312 449.976562 499.796875 458.53125 C 498.71875 465.78125 496.476562 471.8125 491.667969 477.378906 C 485.964844 483.996094 481.042969 491.28125 475.652344 498.1875 C 474.085938 500.234375 472.074219 501.964844 468.335938 503.050781 Z M 487.636719 498.726562 C 485.660156 498.902344 483.730469 499.605469 479.699219 500.5625 C 487.953125 487.855469 494.113281 475.929688 509.535156 469.992188 C 508.480469 474.515625 507.546875 476.839844 507.453125 479.203125 C 506.949219 492.003906 499.65625 497.675781 487.636719 498.726562 Z M 508.972656 492.015625 C 510.363281 485.925781 508.820312 479.414062 515.449219 473.695312 C 517.824219 489.222656 517.472656 490.191406 508.972656 492.015625 Z M 528.027344 476.1875 C 529.316406 475.273438 530.296875 475.261719 531.136719 475.71875 C 532.484375 477.90625 533.933594 480.335938 535.113281 482.300781 C 534.808594 483.632812 534.433594 485.28125 533.886719 487.738281 C 533.054688 485.855469 530.332031 480.582031 528.027344 476.1875 Z M 521.703125 489.375 C 518.066406 486.589844 518.148438 475.332031 521.46875 474.246094 C 522.207031 474 523.234375 474.644531 524.3125 475.4375 C 525.140625 478.40625 526.203125 484.335938 526.683594 487.234375 C 526.683594 487.339844 526.683594 487.457031 526.683594 487.5625 C 524.882812 488.226562 523.082031 488.882812 521.703125 489.375 Z M 541.660156 484.605469 C 540.539062 483.222656 537.894531 479.972656 535.371094 476.875 C 535.078125 474.703125 534.75 472.351562 534.363281 469.5 C 540.957031 472.574219 542.96875 477.53125 545.238281 482.347656 C 543.824219 483.867188 542.652344 484.511719 541.660156 484.605469 Z M 541.660156 484.605469 " fill-opacity="1" fill-rule="nonzero"/></g><g fill="#000000" fill-opacity="1"><g transform="translate(593.501483, 707.361355)"><g><path d="M 0.34375 0 L 0.265625 0 L 0.265625 -0.28125 L 0.015625 -0.71875 L 0.109375 -0.71875 L 0.296875 -0.375 L 0.3125 -0.375 L 0.5 -0.71875 L 0.59375 -0.71875 L 0.34375 -0.28125 Z M 0.34375 0 "/></g></g><g transform="translate(594.115162, 707.361355)"><g><path d="M 0.3125 0.015625 C 0.257812 0.015625 0.210938 0.00390625 0.171875 -0.015625 C 0.140625 -0.0351562 0.113281 -0.0664062 0.09375 -0.109375 C 0.0703125 -0.160156 0.0625 -0.210938 0.0625 -0.265625 C 0.0625 -0.328125 0.0703125 -0.378906 0.09375 -0.421875 C 0.113281 -0.460938 0.140625 -0.492188 0.171875 -0.515625 C 0.210938 -0.535156 0.257812 -0.546875 0.3125 -0.546875 C 0.363281 -0.546875 0.40625 -0.535156 0.4375 -0.515625 C 0.476562 -0.492188 0.507812 -0.460938 0.53125 -0.421875 C 0.550781 -0.378906 0.5625 -0.328125 0.5625 -0.265625 C 0.5625 -0.210938 0.550781 -0.160156 0.53125 -0.109375 C 0.507812 -0.0664062 0.476562 -0.0351562 0.4375 -0.015625 C 0.40625 0.00390625 0.363281 0.015625 0.3125 0.015625 Z M 0.3125 -0.0625 C 0.363281 -0.0625 0.398438 -0.078125 0.421875 -0.109375 C 0.453125 -0.140625 0.46875 -0.191406 0.46875 -0.265625 C 0.46875 -0.335938 0.453125 -0.390625 0.421875 -0.421875 C 0.398438 -0.460938 0.363281 -0.484375 0.3125 -0.484375 C 0.257812 -0.484375 0.21875 -0.460938 0.1875 -0.421875 C 0.15625 -0.390625 0.140625 -0.335938 0.140625 -0.265625 C 0.140625 -0.191406 0.15625 -0.140625 0.1875 -0.109375 C 0.21875 -0.078125 0.257812 -0.0625 0.3125 -0.0625 Z M 0.3125 -0.0625 "/></g></g><g transform="translate(594.733235, 707.361355)"><g><path d="M 0.265625 0.015625 C 0.203125 0.015625 0.15625 0 0.125 -0.03125 C 0.09375 -0.0703125 0.078125 -0.125 0.078125 -0.1875 L 0.078125 -0.53125 L 0.171875 -0.53125 L 0.171875 -0.1875 C 0.171875 -0.101562 0.207031 -0.0625 0.28125 -0.0625 C 0.332031 -0.0625 0.367188 -0.078125 0.390625 -0.109375 C 0.421875 -0.140625 0.4375 -0.191406 0.4375 -0.265625 L 0.4375 -0.53125 L 0.515625 -0.53125 L 0.515625 0 L 0.4375 0 L 0.4375 -0.09375 C 0.414062 -0.0507812 0.390625 -0.0195312 0.359375 0 C 0.335938 0.0078125 0.304688 0.015625 0.265625 0.015625 Z M 0.265625 0.015625 "/></g></g><g transform="translate(595.34496, 707.361355)"><g><path d="M 0.09375 0 L 0.09375 -0.53125 L 0.171875 -0.53125 L 0.171875 -0.453125 L 0.1875 -0.453125 C 0.207031 -0.515625 0.253906 -0.546875 0.328125 -0.546875 C 0.359375 -0.546875 0.382812 -0.539062 0.40625 -0.53125 L 0.390625 -0.453125 L 0.375 -0.453125 C 0.351562 -0.460938 0.332031 -0.46875 0.3125 -0.46875 C 0.269531 -0.46875 0.234375 -0.453125 0.203125 -0.421875 C 0.179688 -0.390625 0.171875 -0.335938 0.171875 -0.265625 L 0.171875 0 Z M 0.09375 0 "/></g></g><g transform="translate(595.760915, 707.361355)"><g/></g><g transform="translate(596.005995, 707.361355)"><g><path d="M 0.09375 0.21875 L 0.09375 -0.53125 L 0.171875 -0.53125 L 0.171875 -0.453125 L 0.1875 -0.453125 C 0.226562 -0.515625 0.285156 -0.546875 0.359375 -0.546875 C 0.398438 -0.546875 0.4375 -0.535156 0.46875 -0.515625 C 0.507812 -0.492188 0.535156 -0.460938 0.546875 -0.421875 C 0.566406 -0.378906 0.578125 -0.328125 0.578125 -0.265625 C 0.578125 -0.203125 0.566406 -0.148438 0.546875 -0.109375 C 0.535156 -0.0664062 0.507812 -0.0351562 0.46875 -0.015625 C 0.4375 0.00390625 0.398438 0.015625 0.359375 0.015625 C 0.316406 0.015625 0.28125 0.0078125 0.25 0 C 0.226562 -0.0195312 0.207031 -0.046875 0.1875 -0.078125 L 0.171875 -0.0625 L 0.171875 0.21875 Z M 0.34375 -0.0625 C 0.445312 -0.0625 0.5 -0.128906 0.5 -0.265625 C 0.5 -0.410156 0.445312 -0.484375 0.34375 -0.484375 C 0.300781 -0.484375 0.269531 -0.472656 0.25 -0.453125 C 0.226562 -0.441406 0.207031 -0.421875 0.1875 -0.390625 C 0.175781 -0.359375 0.171875 -0.316406 0.171875 -0.265625 C 0.171875 -0.222656 0.175781 -0.1875 0.1875 -0.15625 C 0.207031 -0.125 0.226562 -0.0976562 0.25 -0.078125 C 0.269531 -0.0664062 0.300781 -0.0625 0.34375 -0.0625 Z M 0.34375 -0.0625 "/></g></g><g transform="translate(596.648479, 707.361355)"><g><path d="M 0.21875 0.015625 C 0.164062 0.015625 0.125 0 0.09375 -0.03125 C 0.0625 -0.0625 0.046875 -0.101562 0.046875 -0.15625 C 0.046875 -0.1875 0.0507812 -0.210938 0.0625 -0.234375 C 0.0820312 -0.253906 0.101562 -0.269531 0.125 -0.28125 C 0.15625 -0.300781 0.195312 -0.3125 0.25 -0.3125 C 0.28125 -0.320312 0.304688 -0.328125 0.328125 -0.328125 C 0.347656 -0.335938 0.363281 -0.347656 0.375 -0.359375 C 0.382812 -0.367188 0.390625 -0.382812 0.390625 -0.40625 C 0.390625 -0.425781 0.378906 -0.441406 0.359375 -0.453125 C 0.335938 -0.472656 0.3125 -0.484375 0.28125 -0.484375 C 0.238281 -0.484375 0.207031 -0.472656 0.1875 -0.453125 C 0.164062 -0.441406 0.144531 -0.425781 0.125 -0.40625 L 0.109375 -0.40625 L 0.078125 -0.453125 C 0.0976562 -0.484375 0.125 -0.503906 0.15625 -0.515625 C 0.1875 -0.535156 0.226562 -0.546875 0.28125 -0.546875 C 0.34375 -0.546875 0.390625 -0.53125 0.421875 -0.5 C 0.453125 -0.476562 0.46875 -0.441406 0.46875 -0.390625 L 0.46875 -0.109375 C 0.46875 -0.078125 0.476562 -0.0625 0.5 -0.0625 C 0.507812 -0.0625 0.519531 -0.0625 0.53125 -0.0625 L 0.546875 -0.015625 C 0.535156 -0.00390625 0.523438 0 0.515625 0 C 0.503906 0 0.492188 0 0.484375 0 C 0.453125 0 0.429688 -0.00390625 0.421875 -0.015625 C 0.410156 -0.0234375 0.398438 -0.046875 0.390625 -0.078125 L 0.375 -0.078125 C 0.363281 -0.046875 0.34375 -0.0195312 0.3125 0 C 0.289062 0.0078125 0.257812 0.015625 0.21875 0.015625 Z M 0.234375 -0.046875 C 0.265625 -0.046875 0.289062 -0.0507812 0.3125 -0.0625 C 0.332031 -0.0820312 0.347656 -0.101562 0.359375 -0.125 C 0.378906 -0.15625 0.390625 -0.1875 0.390625 -0.21875 L 0.390625 -0.28125 L 0.375 -0.296875 C 0.363281 -0.285156 0.347656 -0.273438 0.328125 -0.265625 C 0.316406 -0.265625 0.296875 -0.257812 0.265625 -0.25 C 0.234375 -0.25 0.207031 -0.242188 0.1875 -0.234375 C 0.164062 -0.222656 0.148438 -0.210938 0.140625 -0.203125 C 0.140625 -0.191406 0.140625 -0.175781 0.140625 -0.15625 C 0.140625 -0.125 0.144531 -0.0976562 0.15625 -0.078125 C 0.175781 -0.0546875 0.203125 -0.046875 0.234375 -0.046875 Z M 0.234375 -0.046875 "/></g></g><g transform="translate(597.205525, 707.361355)"><g><path d="M 0.09375 0 L 0.09375 -0.53125 L 0.171875 -0.53125 L 0.171875 -0.453125 L 0.1875 -0.453125 C 0.207031 -0.515625 0.253906 -0.546875 0.328125 -0.546875 C 0.359375 -0.546875 0.382812 -0.539062 0.40625 -0.53125 L 0.390625 -0.453125 L 0.375 -0.453125 C 0.351562 -0.460938 0.332031 -0.46875 0.3125 -0.46875 C 0.269531 -0.46875 0.234375 -0.453125 0.203125 -0.421875 C 0.179688 -0.390625 0.171875 -0.335938 0.171875 -0.265625 L 0.171875 0 Z M 0.09375 0 "/></g></g><g transform="translate(597.621479, 707.361355)"><g><path d="M 0.21875 0.015625 C 0.164062 0.015625 0.125 0 0.09375 -0.03125 C 0.0625 -0.0625 0.046875 -0.101562 0.046875 -0.15625 C 0.046875 -0.1875 0.0507812 -0.210938 0.0625 -0.234375 C 0.0820312 -0.253906 0.101562 -0.269531 0.125 -0.28125 C 0.15625 -0.300781 0.195312 -0.3125 0.25 -0.3125 C 0.28125 -0.320312 0.304688 -0.328125 0.328125 -0.328125 C 0.347656 -0.335938 0.363281 -0.347656 0.375 -0.359375 C 0.382812 -0.367188 0.390625 -0.382812 0.390625 -0.40625 C 0.390625 -0.425781 0.378906 -0.441406 0.359375 -0.453125 C 0.335938 -0.472656 0.3125 -0.484375 0.28125 -0.484375 C 0.238281 -0.484375 0.207031 -0.472656 0.1875 -0.453125 C 0.164062 -0.441406 0.144531 -0.425781 0.125 -0.40625 L 0.109375 -0.40625 L 0.078125 -0.453125 C 0.0976562 -0.484375 0.125 -0.503906 0.15625 -0.515625 C 0.1875 -0.535156 0.226562 -0.546875 0.28125 -0.546875 C 0.34375 -0.546875 0.390625 -0.53125 0.421875 -0.5 C 0.453125 -0.476562 0.46875 -0.441406 0.46875 -0.390625 L 0.46875 -0.109375 C 0.46875 -0.078125 0.476562 -0.0625 0.5 -0.0625 C 0.507812 -0.0625 0.519531 -0.0625 0.53125 -0.0625 L 0.546875 -0.015625 C 0.535156 -0.00390625 0.523438 0 0.515625 0 C 0.503906 0 0.492188 0 0.484375 0 C 0.453125 0 0.429688 -0.00390625 0.421875 -0.015625 C 0.410156 -0.0234375 0.398438 -0.046875 0.390625 -0.078125 L 0.375 -0.078125 C 0.363281 -0.046875 0.34375 -0.0195312 0.3125 0 C 0.289062 0.0078125 0.257812 0.015625 0.21875 0.015625 Z M 0.234375 -0.046875 C 0.265625 -0.046875 0.289062 -0.0507812 0.3125 -0.0625 C 0.332031 -0.0820312 0.347656 -0.101562 0.359375 -0.125 C 0.378906 -0.15625 0.390625 -0.1875 0.390625 -0.21875 L 0.390625 -0.28125 L 0.375 -0.296875 C 0.363281 -0.285156 0.347656 -0.273438 0.328125 -0.265625 C 0.316406 -0.265625 0.296875 -0.257812 0.265625 -0.25 C 0.234375 -0.25 0.207031 -0.242188 0.1875 -0.234375 C 0.164062 -0.222656 0.148438 -0.210938 0.140625 -0.203125 C 0.140625 -0.191406 0.140625 -0.175781 0.140625 -0.15625 C 0.140625 -0.125 0.144531 -0.0976562 0.15625 -0.078125 C 0.175781 -0.0546875 0.203125 -0.046875 0.234375 -0.046875 Z M 0.234375 -0.046875 "/></g></g><g transform="translate(598.178526, 707.361355)"><g><path d="M 0.28125 0.234375 C 0.195312 0.234375 0.132812 0.21875 0.09375 0.1875 C 0.0507812 0.15625 0.03125 0.117188 0.03125 0.078125 C 0.03125 0.046875 0.0390625 0.0195312 0.0625 0 C 0.0820312 -0.0195312 0.109375 -0.03125 0.140625 -0.03125 L 0.140625 -0.046875 C 0.117188 -0.0546875 0.101562 -0.0664062 0.09375 -0.078125 C 0.09375 -0.0859375 0.09375 -0.101562 0.09375 -0.125 C 0.09375 -0.144531 0.0976562 -0.160156 0.109375 -0.171875 C 0.117188 -0.191406 0.140625 -0.203125 0.171875 -0.203125 L 0.171875 -0.21875 C 0.109375 -0.25 0.078125 -0.300781 0.078125 -0.375 C 0.078125 -0.40625 0.0820312 -0.429688 0.09375 -0.453125 C 0.113281 -0.484375 0.140625 -0.503906 0.171875 -0.515625 C 0.203125 -0.535156 0.238281 -0.546875 0.28125 -0.546875 C 0.320312 -0.546875 0.359375 -0.535156 0.390625 -0.515625 C 0.398438 -0.523438 0.40625 -0.535156 0.40625 -0.546875 C 0.414062 -0.566406 0.421875 -0.585938 0.421875 -0.609375 L 0.4375 -0.609375 L 0.5 -0.59375 C 0.5 -0.570312 0.488281 -0.550781 0.46875 -0.53125 C 0.457031 -0.507812 0.441406 -0.492188 0.421875 -0.484375 L 0.421875 -0.46875 C 0.441406 -0.457031 0.453125 -0.441406 0.453125 -0.421875 C 0.460938 -0.398438 0.46875 -0.378906 0.46875 -0.359375 C 0.46875 -0.328125 0.457031 -0.296875 0.4375 -0.265625 C 0.425781 -0.242188 0.40625 -0.222656 0.375 -0.203125 C 0.34375 -0.191406 0.3125 -0.1875 0.28125 -0.1875 C 0.269531 -0.1875 0.257812 -0.1875 0.25 -0.1875 C 0.238281 -0.1875 0.226562 -0.1875 0.21875 -0.1875 C 0.207031 -0.1875 0.195312 -0.179688 0.1875 -0.171875 C 0.175781 -0.160156 0.171875 -0.148438 0.171875 -0.140625 C 0.171875 -0.117188 0.175781 -0.101562 0.1875 -0.09375 C 0.195312 -0.09375 0.210938 -0.09375 0.234375 -0.09375 L 0.359375 -0.078125 C 0.421875 -0.078125 0.460938 -0.0664062 0.484375 -0.046875 C 0.515625 -0.0234375 0.53125 0.0078125 0.53125 0.0625 C 0.53125 0.09375 0.519531 0.117188 0.5 0.140625 C 0.476562 0.171875 0.445312 0.191406 0.40625 0.203125 C 0.375 0.222656 0.332031 0.234375 0.28125 0.234375 Z M 0.28125 -0.25 C 0.3125 -0.25 0.335938 -0.257812 0.359375 -0.28125 C 0.378906 -0.300781 0.390625 -0.328125 0.390625 -0.359375 C 0.390625 -0.398438 0.378906 -0.429688 0.359375 -0.453125 C 0.335938 -0.472656 0.3125 -0.484375 0.28125 -0.484375 C 0.238281 -0.484375 0.207031 -0.472656 0.1875 -0.453125 C 0.164062 -0.429688 0.15625 -0.398438 0.15625 -0.359375 C 0.15625 -0.328125 0.164062 -0.300781 0.1875 -0.28125 C 0.207031 -0.257812 0.238281 -0.25 0.28125 -0.25 Z M 0.28125 0.15625 C 0.320312 0.15625 0.351562 0.148438 0.375 0.140625 C 0.394531 0.140625 0.410156 0.128906 0.421875 0.109375 C 0.441406 0.0976562 0.453125 0.0820312 0.453125 0.0625 C 0.453125 0.0507812 0.445312 0.0390625 0.4375 0.03125 C 0.425781 0.0195312 0.414062 0.0078125 0.40625 0 C 0.394531 0 0.378906 0 0.359375 0 L 0.234375 -0.015625 L 0.21875 -0.015625 C 0.144531 -0.015625 0.109375 0.0078125 0.109375 0.0625 C 0.109375 0.125 0.164062 0.15625 0.28125 0.15625 Z M 0.28125 0.15625 "/></g></g><g transform="translate(598.730202, 707.361355)"><g><path d="M 0.09375 0 L 0.09375 -0.53125 L 0.171875 -0.53125 L 0.171875 -0.453125 L 0.1875 -0.453125 C 0.207031 -0.515625 0.253906 -0.546875 0.328125 -0.546875 C 0.359375 -0.546875 0.382812 -0.539062 0.40625 -0.53125 L 0.390625 -0.453125 L 0.375 -0.453125 C 0.351562 -0.460938 0.332031 -0.46875 0.3125 -0.46875 C 0.269531 -0.46875 0.234375 -0.453125 0.203125 -0.421875 C 0.179688 -0.390625 0.171875 -0.335938 0.171875 -0.265625 L 0.171875 0 Z M 0.09375 0 "/></g></g><g transform="translate(599.146156, 707.361355)"><g><path d="M 0.21875 0.015625 C 0.164062 0.015625 0.125 0 0.09375 -0.03125 C 0.0625 -0.0625 0.046875 -0.101562 0.046875 -0.15625 C 0.046875 -0.1875 0.0507812 -0.210938 0.0625 -0.234375 C 0.0820312 -0.253906 0.101562 -0.269531 0.125 -0.28125 C 0.15625 -0.300781 0.195312 -0.3125 0.25 -0.3125 C 0.28125 -0.320312 0.304688 -0.328125 0.328125 -0.328125 C 0.347656 -0.335938 0.363281 -0.347656 0.375 -0.359375 C 0.382812 -0.367188 0.390625 -0.382812 0.390625 -0.40625 C 0.390625 -0.425781 0.378906 -0.441406 0.359375 -0.453125 C 0.335938 -0.472656 0.3125 -0.484375 0.28125 -0.484375 C 0.238281 -0.484375 0.207031 -0.472656 0.1875 -0.453125 C 0.164062 -0.441406 0.144531 -0.425781 0.125 -0.40625 L 0.109375 -0.40625 L 0.078125 -0.453125 C 0.0976562 -0.484375 0.125 -0.503906 0.15625 -0.515625 C 0.1875 -0.535156 0.226562 -0.546875 0.28125 -0.546875 C 0.34375 -0.546875 0.390625 -0.53125 0.421875 -0.5 C 0.453125 -0.476562 0.46875 -0.441406 0.46875 -0.390625 L 0.46875 -0.109375 C 0.46875 -0.078125 0.476562 -0.0625 0.5 -0.0625 C 0.507812 -0.0625 0.519531 -0.0625 0.53125 -0.0625 L 0.546875 -0.015625 C 0.535156 -0.00390625 0.523438 0 0.515625 0 C 0.503906 0 0.492188 0 0.484375 0 C 0.453125 0 0.429688 -0.00390625 0.421875 -0.015625 C 0.410156 -0.0234375 0.398438 -0.046875 0.390625 -0.078125 L 0.375 -0.078125 C 0.363281 -0.046875 0.34375 -0.0195312 0.3125 0 C 0.289062 0.0078125 0.257812 0.015625 0.21875 0.015625 Z M 0.234375 -0.046875 C 0.265625 -0.046875 0.289062 -0.0507812 0.3125 -0.0625 C 0.332031 -0.0820312 0.347656 -0.101562 0.359375 -0.125 C 0.378906 -0.15625 0.390625 -0.1875 0.390625 -0.21875 L 0.390625 -0.28125 L 0.375 -0.296875 C 0.363281 -0.285156 0.347656 -0.273438 0.328125 -0.265625 C 0.316406 -0.265625 0.296875 -0.257812 0.265625 -0.25 C 0.234375 -0.25 0.207031 -0.242188 0.1875 -0.234375 C 0.164062 -0.222656 0.148438 -0.210938 0.140625 -0.203125 C 0.140625 -0.191406 0.140625 -0.175781 0.140625 -0.15625 C 0.140625 -0.125 0.144531 -0.0976562 0.15625 -0.078125 C 0.175781 -0.0546875 0.203125 -0.046875 0.234375 -0.046875 Z M 0.234375 -0.046875 "/></g></g><g transform="translate(599.703202, 707.361355)"><g><path d="M 0.09375 0.21875 L 0.09375 -0.53125 L 0.171875 -0.53125 L 0.171875 -0.453125 L 0.1875 -0.453125 C 0.226562 -0.515625 0.285156 -0.546875 0.359375 -0.546875 C 0.398438 -0.546875 0.4375 -0.535156 0.46875 -0.515625 C 0.507812 -0.492188 0.535156 -0.460938 0.546875 -0.421875 C 0.566406 -0.378906 0.578125 -0.328125 0.578125 -0.265625 C 0.578125 -0.203125 0.566406 -0.148438 0.546875 -0.109375 C 0.535156 -0.0664062 0.507812 -0.0351562 0.46875 -0.015625 C 0.4375 0.00390625 0.398438 0.015625 0.359375 0.015625 C 0.316406 0.015625 0.28125 0.0078125 0.25 0 C 0.226562 -0.0195312 0.207031 -0.046875 0.1875 -0.078125 L 0.171875 -0.0625 L 0.171875 0.21875 Z M 0.34375 -0.0625 C 0.445312 -0.0625 0.5 -0.128906 0.5 -0.265625 C 0.5 -0.410156 0.445312 -0.484375 0.34375 -0.484375 C 0.300781 -0.484375 0.269531 -0.472656 0.25 -0.453125 C 0.226562 -0.441406 0.207031 -0.421875 0.1875 -0.390625 C 0.175781 -0.359375 0.171875 -0.316406 0.171875 -0.265625 C 0.171875 -0.222656 0.175781 -0.1875 0.1875 -0.15625 C 0.207031 -0.125 0.226562 -0.0976562 0.25 -0.078125 C 0.269531 -0.0664062 0.300781 -0.0625 0.34375 -0.0625 Z M 0.34375 -0.0625 "/></g></g><g transform="translate(600.345685, 707.361355)"><g><path d="M 0.09375 0 L 0.09375 -0.75 L 0.171875 -0.75 L 0.171875 -0.46875 L 0.1875 -0.453125 C 0.21875 -0.515625 0.269531 -0.546875 0.34375 -0.546875 C 0.414062 -0.546875 0.460938 -0.53125 0.484375 -0.5 C 0.515625 -0.46875 0.53125 -0.414062 0.53125 -0.34375 L 0.53125 0 L 0.453125 0 L 0.453125 -0.34375 C 0.453125 -0.375 0.445312 -0.398438 0.4375 -0.421875 C 0.4375 -0.441406 0.425781 -0.457031 0.40625 -0.46875 C 0.382812 -0.476562 0.359375 -0.484375 0.328125 -0.484375 C 0.285156 -0.484375 0.25 -0.46875 0.21875 -0.4375 C 0.1875 -0.40625 0.171875 -0.351562 0.171875 -0.28125 L 0.171875 0 Z M 0.09375 0 "/></g></g><g transform="translate(600.965711, 707.361355)"><g/></g><g transform="translate(601.210792, 707.361355)"><g><path d="M 0.359375 -0.078125 L 0.390625 -0.03125 C 0.378906 -0.0195312 0.363281 -0.0078125 0.34375 0 C 0.320312 0.0078125 0.296875 0.015625 0.265625 0.015625 C 0.171875 0.015625 0.125 -0.0351562 0.125 -0.140625 L 0.125 -0.46875 L 0.03125 -0.46875 L 0.03125 -0.546875 L 0.125 -0.546875 L 0.125 -0.65625 L 0.203125 -0.671875 L 0.203125 -0.546875 L 0.375 -0.546875 L 0.375 -0.46875 L 0.203125 -0.46875 L 0.203125 -0.15625 C 0.203125 -0.09375 0.226562 -0.0625 0.28125 -0.0625 C 0.3125 -0.0625 0.335938 -0.0664062 0.359375 -0.078125 Z M 0.359375 -0.078125 "/></g></g><g transform="translate(601.620887, 707.361355)"><g><path d="M 0.515625 -0.25 L 0.140625 -0.25 C 0.140625 -0.1875 0.15625 -0.140625 0.1875 -0.109375 C 0.21875 -0.078125 0.257812 -0.0625 0.3125 -0.0625 C 0.351562 -0.0625 0.382812 -0.0664062 0.40625 -0.078125 C 0.425781 -0.0976562 0.441406 -0.117188 0.453125 -0.140625 L 0.46875 -0.140625 L 0.515625 -0.109375 C 0.503906 -0.078125 0.476562 -0.046875 0.4375 -0.015625 C 0.40625 0.00390625 0.363281 0.015625 0.3125 0.015625 C 0.257812 0.015625 0.210938 0.00390625 0.171875 -0.015625 C 0.140625 -0.0351562 0.113281 -0.0664062 0.09375 -0.109375 C 0.0703125 -0.148438 0.0625 -0.203125 0.0625 -0.265625 C 0.0625 -0.328125 0.0703125 -0.378906 0.09375 -0.421875 C 0.113281 -0.460938 0.140625 -0.492188 0.171875 -0.515625 C 0.210938 -0.535156 0.257812 -0.546875 0.3125 -0.546875 C 0.375 -0.546875 0.425781 -0.523438 0.46875 -0.484375 C 0.507812 -0.453125 0.53125 -0.394531 0.53125 -0.3125 C 0.53125 -0.28125 0.53125 -0.257812 0.53125 -0.25 Z M 0.453125 -0.3125 C 0.441406 -0.375 0.425781 -0.414062 0.40625 -0.4375 C 0.382812 -0.46875 0.351562 -0.484375 0.3125 -0.484375 C 0.257812 -0.484375 0.21875 -0.46875 0.1875 -0.4375 C 0.164062 -0.414062 0.148438 -0.375 0.140625 -0.3125 Z M 0.453125 -0.3125 "/></g></g><g transform="translate(602.195021, 707.361355)"><g><path d="M 0.109375 0 L 0.03125 0 L 0.1875 -0.28125 L 0.03125 -0.53125 L 0.125 -0.53125 L 0.25 -0.328125 L 0.265625 -0.328125 L 0.390625 -0.53125 L 0.46875 -0.53125 L 0.3125 -0.28125 L 0.484375 0 L 0.390625 0 L 0.25 -0.234375 Z M 0.109375 0 "/></g></g><g transform="translate(602.6969, 707.361355)"><g><path d="M 0.359375 -0.078125 L 0.390625 -0.03125 C 0.378906 -0.0195312 0.363281 -0.0078125 0.34375 0 C 0.320312 0.0078125 0.296875 0.015625 0.265625 0.015625 C 0.171875 0.015625 0.125 -0.0351562 0.125 -0.140625 L 0.125 -0.46875 L 0.03125 -0.46875 L 0.03125 -0.546875 L 0.125 -0.546875 L 0.125 -0.65625 L 0.203125 -0.671875 L 0.203125 -0.546875 L 0.375 -0.546875 L 0.375 -0.46875 L 0.203125 -0.46875 L 0.203125 -0.15625 C 0.203125 -0.09375 0.226562 -0.0625 0.28125 -0.0625 C 0.3125 -0.0625 0.335938 -0.0664062 0.359375 -0.078125 Z M 0.359375 -0.078125 "/></g></g></g></svg>